<svg xmlns="http://www.w3.org/2000/svg" width="440" height="440" viewBox="0 0 440 440" role="img" aria-label="Gramlot mark, white"><title>Gramlot mark, white</title><g xmlns="http://www.w3.org/2000/svg" id="symbol" transform="scale(0.350877193)"><g fill="#FFFFFF"><path d="M677.29 394.14C678.51 394.60 677.97 396.69 678.00 398.00C678.07 401.00 678.00 404.00 678.00 407.00C678.00 411.77 678.76 416.28 679.00 421.00C679.50 430.94 679.00 441.04 679.00 451.00C679.00 465.85 680.14 481.20 679.00 496.00C677.87 510.64 678.00 525.27 678.00 540.00C678.00 567.04 679.45 593.71 688.57 619.43C696.12 640.69 711.66 658.56 730.71 670.29C733.80 672.18 736.69 674.51 740.00 676.00C747.64 679.42 755.24 683.05 763.14 685.86C766.18 686.93 769.18 687.87 772.29 688.71C773.06 688.92 773.81 689.18 774.57 689.43C775.29 689.67 777.14 690.48 776.43 690.71C773.92 691.55 771.34 690.40 768.86 690.14C763.10 689.54 756.78 689.71 751.00 690.00C737.08 690.70 723.22 694.21 711.00 701.00C690.10 712.61 678.52 737.03 673.29 759.29C669.04 777.33 666.42 795.54 665.00 814.00C664.24 823.87 665.00 834.10 665.00 844.00C665.00 860.50 665.14 876.79 666.86 893.14C668.28 906.70 669.71 920.29 671.14 933.86C673.81 959.16 679.90 984.59 685.71 1009.29C692.21 1036.88 701.70 1063.57 709.14 1090.86C709.97 1093.90 710.79 1098.01 708.86 1100.86C706.28 1104.64 701.85 1101.72 700.00 1099.00C697.85 1095.84 696.69 1092.38 695.00 1089.00C689.20 1077.39 684.48 1065.08 680.14 1052.86C670.78 1026.47 662.12 999.53 655.71 972.29C653.01 960.80 651.13 949.05 648.43 937.57C641.13 906.57 638.18 874.68 634.86 843.14C633.53 830.50 631.64 817.72 631.00 805.00C629.68 778.55 627.58 751.11 620.57 725.43C617.88 715.55 613.96 706.93 609.00 698.00C606.43 693.38 602.45 688.02 598.71 684.29C597.21 682.79 595.23 681.81 593.71 680.29C567.88 654.45 526.56 647.80 491.86 644.14C482.53 643.16 472.80 643.97 463.57 642.43C456.91 641.32 449.75 642.00 443.00 642.00C426.59 642.00 410.31 642.75 394.00 644.00C370.24 645.83 346.70 648.51 323.00 651.00C297.10 653.73 271.39 659.44 245.71 663.71C223.38 667.44 201.16 671.68 178.71 674.71C173.31 675.45 159.39 676.91 157.43 669.57C156.57 666.36 158.60 663.82 160.71 661.71C165.23 657.20 171.95 654.30 177.71 651.71C197.04 643.05 220.00 638.62 241.00 637.00C246.33 636.59 251.64 635.27 257.00 635.00C275.38 634.08 293.87 632.07 312.14 630.14C315.09 629.83 318.06 630.23 321.00 630.00C335.66 628.87 350.32 627.13 365.00 626.00C401.47 623.19 437.72 617.88 473.86 611.86C482.94 610.34 491.76 607.82 500.71 605.71C549.22 594.30 603.75 573.65 631.14 529.14C648.06 501.66 656.99 471.38 665.43 440.43C668.25 430.10 670.84 419.70 673.29 409.29C674.24 405.25 675.19 401.20 676.14 397.14C676.39 396.10 676.28 393.77 677.29 394.14Z" /></g><g fill="#FFFFFF"><path d="M777.43 112.43C784.74 112.04 782.94 121.16 781.43 125.43C775.60 141.86 770.34 158.51 765.14 175.14C752.49 215.63 742.98 257.12 736.00 299.00C728.91 341.53 722.49 383.99 716.71 426.71C714.32 444.45 711.37 462.18 710.00 480.00C709.23 489.98 707.00 499.96 707.00 510.00C707.00 513.75 706.19 517.28 706.00 521.00C705.32 534.54 705.59 548.57 707.00 562.00C709.64 587.05 722.23 610.49 740.71 627.29C744.90 631.09 750.20 633.97 754.86 637.14C767.69 645.87 782.16 652.38 796.29 658.71C851.48 683.45 909.68 701.73 961.43 733.57C977.98 743.76 993.89 754.63 1008.29 767.71C1016.16 774.87 1022.54 783.55 1029.29 791.71C1046.66 812.75 1061.10 837.33 1073.29 861.71C1077.92 870.98 1083.39 880.38 1086.86 890.14C1087.99 893.33 1089.46 899.64 1084.71 900.71C1081.37 901.47 1079.26 898.89 1077.29 896.71C1071.57 890.43 1066.63 883.16 1061.86 876.14C1047.74 855.38 1032.23 836.01 1016.29 816.71C1011.78 811.26 1007.29 805.72 1002.29 800.71C984.62 783.05 965.57 767.22 944.86 753.14C916.95 734.17 885.24 720.67 853.57 709.43C843.03 705.69 832.36 702.37 821.57 699.43C808.53 695.87 794.90 694.70 781.86 691.14C755.64 683.99 725.74 672.79 707.86 651.14C702.25 644.35 697.65 637.16 693.71 629.29C683.69 609.24 680.69 588.03 679.00 566.00C677.75 549.70 676.74 532.40 678.00 516.00C678.21 513.29 678.93 510.75 679.00 508.00C679.49 488.03 679.00 467.98 679.00 448.00C679.00 439.00 679.00 430.00 679.00 421.00C679.00 416.16 679.37 411.21 678.57 406.43C675.05 385.30 684.51 363.58 689.29 343.29C699.40 300.30 714.70 258.95 727.86 216.86C736.44 189.39 748.43 162.00 761.29 136.29C764.55 129.75 767.89 123.05 772.00 117.00C773.05 115.45 775.31 112.54 777.43 112.43Z" /><path d="M790.43 522.43C796.57 521.20 803.93 521.57 810.00 523.00C830.17 527.75 843.22 546.01 844.86 566.14C846.59 587.51 827.58 609.06 806.86 611.86C799.41 612.86 793.58 612.70 786.29 610.71C778.32 608.54 771.51 604.08 765.71 598.29C751.58 584.15 749.68 559.78 760.00 543.00C766.71 532.09 778.03 524.91 790.43 522.43Z" /></g></g>
</svg>
